<svg xmlns="http://www.w3.org/2000/svg" width="24" height="24" viewBox="0 0 24 24" fill="none" stroke="currentColor" stroke-width="1.8" stroke-linecap="round" stroke-linejoin="round"><path d="M18.82 10.43 L21.11 10.72 L21.11 13.28 L18.82 13.57 L17.94 15.71 L19.35 17.54 L17.54 19.35 L15.71 17.94 L13.57 18.82 L13.28 21.11 L10.72 21.11 L10.43 18.82 L8.29 17.94 L6.46 19.35 L4.65 17.54 L6.06 15.71 L5.18 13.57 L2.89 13.28 L2.89 10.72 L5.18 10.43 L6.06 8.29 L4.65 6.46 L6.46 4.65 L8.29 6.06 L10.43 5.18 L10.72 2.89 L13.28 2.89 L13.57 5.18 L15.71 6.06 L17.54 4.65 L19.35 6.46 L17.94 8.29z M12 9a3 3 0 1 0 0 6a3 3 0 1 0 0-6z"/></svg>
